<svg width="24" height="24" viewBox="0 0 24 24" fill="none" xmlns="http://www.w3.org/2000/svg">
<path d="M2 22V2H13L11 4H4V20H15V17H17V22H2ZM6 18V16H13V18H6ZM6 15V13H11V15H6ZM15 15L11 11H8V6H11L15 2V15ZM17 11.95V5.05C17.6 5.4 18.0833 5.875 18.45 6.475C18.8167 7.075 19 7.75 19 8.5C19 9.25 18.8167 9.925 18.45 10.525C18.0833 11.125 17.6 11.6 17 11.95ZM17 16.25V14.15C18.1667 13.7333 19.125 13.0123 19.875 11.987C20.625 10.9617 21 9.79933 21 8.5C21 7.2 20.625 6.03733 19.875 5.012C19.125 3.98667 18.1667 3.266 17 2.85V0.75C18.7333 1.2 20.1667 2.13767 21.3 3.563C22.4333 4.98833 23 6.634 23 8.5C23 10.3667 22.4333 12.0127 21.3 13.438C20.1667 14.8633 18.7333 15.8007 17 16.25Z" fill="black"/>
</svg>
